<?xml version="1.0" encoding="utf-8"?>
<!-- Generator: Adobe Illustrator 16.0.3, SVG Export Plug-In . SVG Version: 6.00 Build 0)  -->
<!DOCTYPE svg PUBLIC "-//W3C//DTD SVG 1.1//EN" "http://www.w3.org/Graphics/SVG/1.1/DTD/svg11.dtd">
<svg version="1.1" id="レイヤー_1" xmlns="http://www.w3.org/2000/svg" xmlns:xlink="http://www.w3.org/1999/xlink" x="0px"
	 y="0px" width="1160px" height="500px" viewBox="0 0 1160 500" enable-background="new 0 0 1160 500" xml:space="preserve">
<path fill="#FFFFFF" d="M580.098,137.695c-62.109,0-112.207,50.098-112.207,112.207s50.098,112.207,112.207,112.207
	s112.207-50.098,112.207-112.207S642.207,137.695,580.098,137.695z M580.098,322.852c-40.137,0-72.949-32.715-72.949-72.949
	s32.715-72.949,72.949-72.949s72.949,32.715,72.949,72.949S620.234,322.852,580.098,322.852z M723.066,133.105
	c0,14.551-11.719,26.172-26.172,26.172c-14.551,0-26.172-11.719-26.172-26.172s11.719-26.172,26.172-26.172
	S723.066,118.652,723.066,133.105z M797.383,159.668c-1.66-35.059-9.668-66.113-35.352-91.699
	c-25.586-25.586-56.641-33.594-91.699-35.352c-36.133-2.051-144.434-2.051-180.566,0c-34.961,1.66-66.016,9.668-91.699,35.254
	s-33.594,56.641-35.352,91.699c-2.051,36.133-2.051,144.434,0,180.566c1.66,35.059,9.668,66.113,35.352,91.699
	s56.641,33.594,91.699,35.352c36.133,2.051,144.434,2.051,180.566,0c35.059-1.66,66.113-9.668,91.699-35.352
	c25.586-25.586,33.594-56.641,35.352-91.699C799.434,304.004,799.434,195.801,797.383,159.668z M750.703,378.906
	c-7.617,19.141-22.363,33.887-41.602,41.602c-28.809,11.426-97.168,8.789-129.004,8.789s-100.293,2.539-129.004-8.789
	c-19.141-7.617-33.887-22.363-41.602-41.602c-11.426-28.809-8.789-97.168-8.789-129.004s-2.539-100.293,8.789-129.004
	c7.617-19.141,22.363-33.887,41.602-41.602c28.809-11.426,97.168-8.789,129.004-8.789s100.293-2.539,129.004,8.789
	c19.141,7.617,33.887,22.363,41.602,41.602c11.426,28.809,8.789,97.168,8.789,129.004S762.129,350.195,750.703,378.906z"/>
</svg>
