<?xml version="1.0" encoding="utf-8"?>
<!-- Generator: Adobe Illustrator 16.0.3, SVG Export Plug-In . SVG Version: 6.00 Build 0)  -->
<!DOCTYPE svg PUBLIC "-//W3C//DTD SVG 1.1//EN" "http://www.w3.org/Graphics/SVG/1.1/DTD/svg11.dtd">
<svg version="1.1" id="レイヤー_1" xmlns="http://www.w3.org/2000/svg" xmlns:xlink="http://www.w3.org/1999/xlink" x="0px"
	 y="0px" width="1160px" height="500px" viewBox="0 0 1160 500" enable-background="new 0 0 1160 500" xml:space="preserve">
<path fill="#FFFFFF" d="M423.75,31.25c-34.473,0-62.5,28.027-62.5,62.5v312.5c0,34.473,28.027,62.5,62.5,62.5h95.898V326.367
	h-51.563V250h51.563v-32.91c0-85.059,38.477-124.512,122.07-124.512c15.82,0,43.164,3.125,54.395,6.25v69.141
	c-5.859-0.586-16.113-0.977-28.906-0.977c-41.016,0-56.836,15.527-56.836,55.859V250h81.641l-14.063,76.367h-67.676V468.75H736.25
	c34.473,0,62.5-28.027,62.5-62.5V93.75c0-34.473-28.027-62.5-62.5-62.5H423.75z"/>
</svg>
